<?xml version="1.0" standalone="no"?>
<!DOCTYPE svg PUBLIC "-//W3C//DTD SVG 20010904//EN"
 "http://www.w3.org/TR/2001/REC-SVG-20010904/DTD/svg10.dtd">
<svg version="1.0" xmlns="http://www.w3.org/2000/svg"
 width="450.000000pt" height="380.000000pt" viewBox="0 0 450.000000 380.000000"
 preserveAspectRatio="xMidYMid meet">

<g transform="translate(0.000000,380.000000) scale(0.100000,-0.100000)"
fill="#000000" stroke="none">
<path d="M0 2000 l0 -1800 2250 0 2250 0 0 1800 0 1800 -2250 0 -2250 0 0
-1800z m3120 533 c52 -8 151 -30 220 -48 144 -38 426 -112 485 -127 59 -15 27
-26 -101 -33 -320 -18 -853 -74 -1129 -120 -110 -18 -141 -18 -60 1 134 30
563 96 848 129 31 4 57 11 57 16 0 16 -134 76 -230 102 -140 39 -222 48 -453
48 -284 -1 -353 -13 -555 -100 -112 -49 -276 -144 -280 -163 -5 -24 32 -62 53
-54 17 6 17 7 1 25 -16 18 -16 20 6 35 24 17 123 23 132 7 3 -5 -19 -12 -49
-16 -30 -3 -55 -11 -55 -17 0 -7 20 -8 56 -4 64 7 65 -6 0 -34 -33 -14 -72
-18 -212 -18 -168 -1 -247 -8 -446 -37 -125 -19 -118 -20 -118 15 0 17 5 30
12 30 7 0 104 12 216 26 l203 25 127 64 c150 74 289 131 467 192 125 42 234
61 440 77 83 6 264 -4 365 -21z m45 -374 c-33 -5 -137 -18 -231 -29 -94 -12
-188 -23 -207 -27 -32 -5 -35 -3 -31 15 5 18 19 21 132 31 139 12 219 17 327
18 l70 0 -60 -8z m-1923 -38 c-4 -32 -28 -41 -110 -41 -54 0 -113 -38 -106
-67 4 -16 -6 -20 -72 -31 -125 -20 -213 -69 -275 -156 -41 -55 -36 -21 7 49
57 96 137 156 279 210 70 27 265 76 276 69 3 -2 4 -16 1 -33z m1408 -10 c0
-29 -12 -33 -96 -32 -57 0 -86 -5 -115 -19 -47 -25 -49 -25 -49 -1 0 11 -8 21
-17 23 -10 2 38 12 107 22 69 10 130 19 135 21 24 8 35 4 35 -14z m-347 -48
c-13 -8 -23 -21 -23 -28 0 -6 -12 -17 -26 -24 -23 -10 -26 -9 -31 9 -3 11 -10
20 -16 20 -23 0 7 16 51 26 64 16 71 15 45 -3z m-138 -43 c17 -19 17 -20 -6
-28 -13 -5 -36 -12 -51 -16 -25 -6 -28 -4 -28 19 0 17 7 29 23 35 33 13 42 12
62 -10z m-988 -20 c62 -22 73 -32 66 -61 -5 -18 -6 -18 -34 1 -28 21 -59 33
-111 44 -36 8 -37 36 -3 36 14 0 51 -9 82 -20z m851 -26 c-2 -10 -21 -22 -45
-29 -40 -12 -42 -12 -48 12 -8 31 -3 35 48 48 44 10 52 5 45 -31z m-138 -24
c0 -31 -12 -40 -75 -56 -23 -6 -25 -3 -25 28 0 33 3 36 43 45 23 6 45 11 50
12 4 0 7 -13 7 -29z m-500 -126 c0 -26 23 -26 71 0 38 21 53 25 68 16 25 -13
80 -13 119 1 27 9 32 15 29 41 -2 25 3 32 30 43 31 13 31 13 35 -20 4 -32 2
-33 -62 -60 -130 -55 -190 -84 -235 -115 -26 -18 -48 -30 -49 -28 -2 1 -16 31
-31 65 -15 34 -38 72 -51 84 -17 16 -24 33 -24 58 l1 36 49 -54 c28 -30 50
-60 50 -67z m235 57 c-3 -6 -18 -11 -33 -10 l-27 1 30 13 c32 14 41 13 30 -4z
m184 -199 c22 -48 41 -91 41 -95 0 -4 -9 -7 -20 -7 -14 0 -28 19 -54 75 -19
41 -37 75 -39 75 -3 0 -30 -34 -61 -75 -38 -50 -63 -75 -77 -75 -24 0 -25 -2
54 102 58 79 82 99 102 91 7 -2 31 -43 54 -91z m128 66 c-3 -13 -9 -45 -13
-72 -8 -54 1 -66 51 -66 62 0 74 9 80 59 12 91 16 101 36 101 22 0 24 -20 9
-101 -14 -75 -34 -89 -125 -89 -78 0 -101 13 -98 54 11 128 14 136 40 136 21
0 24 -4 20 -22z m401 5 c-2 -13 -15 -19 -44 -21 l-42 -3 -7 -57 c-9 -80 -14
-92 -37 -92 -19 0 -20 4 -14 53 4 28 10 62 13 75 5 20 2 22 -36 22 -34 0 -41
3 -41 20 0 19 7 20 106 20 95 0 105 -2 102 -17z m231 -2 c7 -12 7 -39 1 -77
-13 -83 -31 -96 -133 -92 -96 4 -103 10 -93 92 11 85 26 96 131 96 72 0 86 -3
94 -19z m281 5 c0 -17 -19 -22 -100 -25 -36 -1 -67 -4 -69 -7 -2 -2 -7 -25
-11 -51 -9 -59 -4 -63 78 -63 68 0 58 -7 144 100 66 82 78 79 133 -29 25 -50
45 -93 45 -96 0 -3 -9 -5 -20 -5 -15 0 -30 20 -58 76 l-39 77 -59 -77 -58 -76
-92 0 c-71 0 -96 4 -108 16 -19 18 -19 24 -5 96 14 69 27 76 137 77 63 1 82
-2 82 -13z m478 2 c17 -17 15 -59 -4 -86 -9 -14 -30 -24 -56 -28 l-41 -7 44
-26 44 -26 -32 -3 c-23 -2 -43 5 -74 27 -53 39 -69 39 -69 1 0 -23 -4 -30 -20
-30 -23 0 -23 0 -8 108 l11 82 97 0 c61 0 100 -4 108 -12z m-1300 -250 c8 -8
15 -8 27 2 8 7 18 10 22 6 4 -3 -3 -13 -15 -22 -12 -8 -22 -22 -22 -30 0 -8
-5 -14 -11 -14 -6 0 -8 8 -4 19 3 12 0 21 -10 25 -16 6 -21 26 -7 26 4 0 13
-5 20 -12z m130 -20 c-3 -30 -6 -33 -38 -33 -25 0 -36 5 -38 18 -5 27 16 47
50 47 27 0 29 -2 26 -32z m42 -22 c12 -13 40 12 40 35 0 11 5 19 10 19 9 0 5
-42 -7 -62 -6 -12 -61 -9 -68 3 -4 5 -3 22 1 37 l8 27 4 -25 c2 -14 8 -29 12
-34z m145 43 c4 -5 0 -18 -9 -28 -9 -10 -13 -21 -9 -24 10 -10 -10 -8 -27 3
-9 5 -19 5 -27 -2 -10 -8 -13 -6 -13 10 0 39 11 52 45 52 19 0 37 -5 40 -11z
m79 -4 c-19 -14 -19 -14 3 -15 12 0 28 -3 37 -6 12 -4 16 0 16 15 0 12 4 21 9
21 6 0 9 -12 8 -27 -2 -21 4 -28 23 -34 24 -7 24 -7 -5 -8 -17 -1 -36 4 -43
11 -9 9 -12 9 -12 0 0 -7 -14 -11 -37 -11 -28 1 -31 3 -13 6 36 7 49 23 19 23
-14 0 -28 3 -32 6 -11 12 5 34 26 34 20 0 20 0 1 -15z m204 -17 c-3 -28 -7
-34 -32 -36 -36 -4 -50 10 -42 42 5 22 12 26 42 26 34 0 35 -1 32 -32z m50 18
c-20 -15 -24 -46 -6 -46 6 0 20 7 30 17 17 15 18 15 18 -3 0 -14 6 -11 29 16
31 37 38 35 59 -12 13 -31 10 -33 -18 -16 -15 9 -25 10 -37 2 -10 -6 -39 -11
-65 -13 -42 -2 -48 1 -48 18 0 34 11 51 34 51 20 -1 20 -2 4 -14z m192 -6 c6
-11 15 -20 20 -20 6 0 10 9 10 20 0 11 5 20 11 20 7 0 8 -12 4 -32 -10 -44
-11 -45 -39 -19 l-23 22 -7 -23 c-10 -31 -20 -5 -12 27 8 30 22 32 36 5z"/>
<path d="M2396 1699 c-15 -75 -12 -79 54 -79 65 0 66 1 72 75 l3 30 -61 3 -61
3 -7 -32z"/>
<path d="M3160 1719 c-22 -40 -6 -51 61 -45 71 7 79 11 79 36 0 23 -19 30 -80
30 -40 0 -51 -4 -60 -21z"/>
<path d="M2100 1487 c0 -21 11 -27 31 -16 27 14 23 29 -6 29 -14 0 -25 -6 -25
-13z"/>
<path d="M2284 1499 c-3 -5 6 -9 20 -9 31 0 34 6 6 13 -11 3 -23 1 -26 -4z"/>
<path d="M2570 1479 c0 -25 33 -22 38 4 2 12 -3 17 -17 17 -15 0 -21 -6 -21
-21z"/>
<path d="M2765 1490 c-3 -5 -1 -10 4 -10 6 0 11 5 11 10 0 6 -2 10 -4 10 -3 0
-8 -4 -11 -10z"/>
<path d="M1502 110 c0 -41 2 -47 7 -25 9 43 38 45 44 3 l5 -33 -2 35 c-1 28
-5 35 -21 35 -11 0 -23 9 -27 20 -3 11 -6 -4 -6 -35z"/>
<path d="M2163 110 c0 -30 2 -47 4 -37 3 9 8 17 13 17 4 0 10 7 13 14 4 10 1
13 -8 10 -9 -4 -15 4 -17 23 -3 15 -5 3 -5 -27z"/>
<path d="M1660 119 c0 -23 6 -41 18 -50 14 -11 15 -11 5 1 -19 20 -16 50 5 51
13 0 14 2 2 6 -8 3 -18 11 -22 17 -4 6 -8 -5 -8 -25z"/>
<path d="M1711 113 c1 -22 3 -30 6 -18 3 11 9 22 13 25 4 3 2 11 -6 18 -12 11
-14 7 -13 -25z"/>
<path d="M2738 143 c7 -3 16 -2 19 1 4 3 -2 6 -13 5 -11 0 -14 -3 -6 -6z"/>
<path d="M2809 148 c-1 -2 -2 -21 -4 -43 -1 -22 0 -32 2 -22 3 9 13 17 23 17
10 0 21 -8 23 -17 4 -17 5 -17 6 0 1 10 -9 21 -25 27 -14 6 -22 14 -19 20 8
13 32 13 38 0 3 -6 4 -5 3 2 -2 11 -44 25 -47 16z"/>
<path d="M2905 129 c-15 -18 -15 -20 -2 -10 15 12 17 11 17 -9 0 -17 -4 -21
-20 -17 -11 3 -20 1 -20 -4 0 -5 9 -9 19 -9 11 0 21 -5 23 -12 8 -23 14 16 8
51 l-5 33 -20 -23z"/>
<path d="M2972 138 c-28 -28 -1 -88 34 -74 25 9 14 51 -13 50 -13 0 -23 3 -23
8 0 5 10 13 23 18 13 5 16 9 7 9 -9 1 -21 -4 -28 -11z m38 -48 c0 -11 -6 -20
-14 -20 -18 0 -29 16 -21 30 11 18 35 11 35 -10z"/>
<path d="M3044 135 c-9 -23 3 -45 23 -44 17 1 17 2 1 6 -23 6 -23 29 0 42 16
10 16 10 -1 11 -10 0 -20 -7 -23 -15z"/>
<path d="M3138 143 c24 -5 25 -8 7 -70 -3 -10 3 0 14 22 26 54 26 55 -11 54
-25 -1 -28 -3 -10 -6z"/>
<path d="M3218 143 c6 -2 12 -20 12 -38 0 -18 -6 -36 -12 -38 -7 -3 1 -5 17
-5 17 0 24 2 18 5 -8 2 -13 22 -13 44 0 31 -4 39 -17 38 -11 0 -13 -3 -5 -6z"/>
<path d="M3298 143 c24 -5 25 -8 7 -70 -3 -10 3 0 14 22 26 54 26 55 -11 54
-25 -1 -28 -3 -10 -6z"/>
<path d="M3378 143 c6 -2 12 -20 12 -38 0 -18 -6 -36 -12 -38 -7 -3 1 -5 17
-5 17 0 24 2 18 5 -8 2 -13 22 -13 44 0 31 -4 39 -17 38 -11 0 -13 -3 -5 -6z"/>
<path d="M1962 102 c2 -27 8 -37 21 -38 12 -1 13 -1 2 3 -18 5 -20 50 -3 55 7
3 5 7 -6 11 -15 6 -17 2 -14 -31z"/>
<path d="M2770 132 c0 -6 -8 -13 -17 -15 -16 -4 -16 -5 -1 -6 18 -1 34 16 24
26 -3 4 -6 1 -6 -5z"/>
<path d="M3091 112 c-1 -24 -7 -35 -23 -42 -16 -6 -18 -9 -7 -9 25 -1 41 24
36 56 -4 27 -4 26 -6 -5z"/>
<path d="M1071 114 c0 -11 3 -14 6 -6 3 7 2 16 -1 19 -3 4 -6 -2 -5 -13z"/>
<path d="M1107 123 c-4 -3 -7 -13 -7 -22 1 -13 3 -13 11 2 11 19 8 33 -4 20z"/>
<path d="M1186 100 c7 -38 11 -46 19 -38 3 3 -2 20 -10 39 l-16 34 7 -35z"/>
<path d="M1217 123 c-4 -3 -7 -13 -7 -22 1 -13 3 -13 11 2 11 19 8 33 -4 20z"/>
<path d="M1254 105 c-5 -20 -9 -23 -15 -13 -5 7 -9 9 -9 3 0 -5 4 -16 9 -23 6
-10 11 -5 20 19 6 18 9 34 7 37 -3 2 -8 -8 -12 -23z"/>
<path d="M1291 114 c0 -11 3 -14 6 -6 3 7 2 16 -1 19 -3 4 -6 -2 -5 -13z"/>
<path d="M1327 123 c-4 -3 -7 -13 -7 -22 1 -13 3 -13 11 2 11 19 8 33 -4 20z"/>
<path d="M1364 104 c-5 -19 -9 -22 -15 -12 -5 7 -9 9 -9 3 0 -16 17 -38 22
-29 9 15 19 64 13 64 -2 0 -8 -12 -11 -26z"/>
<path d="M1435 120 c-8 -13 3 -30 18 -29 9 0 9 2 0 6 -18 7 -16 21 5 26 15 4
15 5 0 6 -9 0 -20 -3 -23 -9z"/>
<path d="M1581 109 c0 -15 7 -33 17 -40 15 -12 16 -12 5 1 -6 8 -13 26 -16 40
l-4 25 -2 -26z"/>
<path d="M1633 95 c0 -22 2 -30 4 -17 2 12 2 30 0 40 -3 9 -5 -1 -4 -23z"/>
<path d="M1841 90 c1 -27 3 -29 6 -10 2 14 11 30 20 37 13 10 13 12 -6 10 -17
-1 -21 -7 -20 -37z"/>
<path d="M1895 120 c-8 -14 3 -30 21 -30 20 0 18 -18 -3 -23 -15 -3 -14 -4 1
-3 27 1 32 26 7 33 -26 7 -27 20 -3 26 15 4 15 5 0 6 -9 0 -20 -3 -23 -9z"/>
<path d="M2042 118 c9 -7 18 -22 21 -33 4 -16 5 -14 6 6 1 16 -5 29 -15 33
-25 9 -29 7 -12 -6z"/>
<path d="M2118 123 c7 -3 16 -2 19 1 4 3 -2 6 -13 5 -11 0 -14 -3 -6 -6z"/>
<path d="M2308 123 c7 -3 16 -2 19 1 4 3 -2 6 -13 5 -11 0 -14 -3 -6 -6z"/>
<path d="M2383 119 c9 -5 17 -16 17 -24 0 -8 -8 -19 -17 -25 -16 -10 -16 -10
2 -8 38 6 28 68 -10 68 -5 -1 -2 -5 8 -11z"/>
<path d="M2443 123 c-7 -2 -12 -19 -12 -36 l1 -32 7 30 c9 43 38 45 44 3 l5
-33 -2 35 c-1 34 -15 45 -43 33z"/>
<path d="M2512 116 c7 -8 15 -12 17 -11 5 6 -10 25 -20 25 -5 0 -4 -6 3 -14z"/>
<path d="M1762 95 c0 -16 2 -24 5 -17 2 6 16 12 29 12 16 0 24 5 23 18 0 10
-3 12 -6 5 -2 -7 -13 -13 -23 -13 -10 0 -21 6 -23 13 -3 6 -5 -1 -5 -18z"/>
<path d="M2014 90 c1 -16 7 -25 19 -26 11 -1 12 0 3 3 -8 2 -17 14 -19 26 -3
18 -4 18 -3 -3z"/>
<path d="M2092 100 c0 -14 2 -19 5 -12 2 6 2 18 0 25 -3 6 -5 1 -5 -13z"/>
<path d="M2282 100 c0 -14 2 -19 5 -12 2 6 2 18 0 25 -3 6 -5 1 -5 -13z"/>
<path d="M2352 95 c0 -16 2 -22 5 -12 2 9 2 23 0 30 -3 6 -5 -1 -5 -18z"/>
<path d="M2612 108 c6 -18 28 -21 28 -4 0 9 -7 16 -16 16 -9 0 -14 -5 -12 -12z"/>
<path d="M1141 95 c-1 -17 -3 -17 -11 -5 -5 8 -10 11 -10 5 0 -5 4 -17 10 -25
8 -12 10 -12 15 2 4 10 5 23 2 30 -3 7 -6 4 -6 -7z"/>
<path d="M2771 84 c0 -11 3 -14 6 -6 3 7 2 16 -1 19 -3 4 -6 -2 -5 -13z"/>
<path d="M1080 76 c0 -9 5 -16 10 -16 6 0 10 4 10 9 0 6 -4 13 -10 16 -5 3
-10 -1 -10 -9z"/>
<path d="M1300 76 c0 -9 5 -16 10 -16 6 0 10 4 10 9 0 6 -4 13 -10 16 -5 3
-10 -1 -10 -9z"/>
<path d="M1470 82 c0 -7 -10 -13 -22 -13 -19 -1 -20 -2 -4 -6 20 -5 44 12 33
24 -4 3 -7 1 -7 -5z"/>
<path d="M1788 63 c7 -3 16 -2 19 1 4 3 -2 6 -13 5 -11 0 -14 -3 -6 -6z"/>
<path d="M2118 63 c7 -3 16 -2 19 1 4 3 -2 6 -13 5 -11 0 -14 -3 -6 -6z"/>
<path d="M2308 63 c7 -3 16 -2 19 1 4 3 -2 6 -13 5 -11 0 -14 -3 -6 -6z"/>
<path d="M2728 63 c6 -2 18 -2 25 0 6 3 1 5 -13 5 -14 0 -19 -2 -12 -5z"/>
</g>
</svg>
